<?xml version="1.0" encoding="UTF-8"?>
<svg xmlns="http://www.w3.org/2000/svg" xmlns:xlink="http://www.w3.org/1999/xlink" viewBox="0 0 150 150" width="150px" height="150px">
<g id="surface212801478">
<path style=" stroke:none;fill-rule:nonzero;fill:rgb(76.078433%,71.764708%,68.235296%);fill-opacity:1;" d="M 75 9 C 38.585938 9 9 38.585938 9 75 C 9 108.058594 33.382812 135.414062 65.140625 140.1875 L 68.585938 140.707031 L 68.585938 88.699219 L 52.992188 88.699219 L 52.992188 78.140625 L 68.585938 78.140625 L 68.585938 64.117188 C 68.585938 55.484375 70.65625 49.796875 74.085938 46.230469 C 77.515625 42.664062 82.585938 40.863281 89.636719 40.863281 C 95.277344 40.863281 97.46875 41.203125 99.554688 41.460938 L 99.554688 50.101562 L 92.214844 50.101562 C 88.050781 50.101562 84.632812 52.425781 82.855469 55.523438 C 81.082031 58.621094 80.53125 62.316406 80.53125 66.082031 L 80.53125 78.132812 L 98.898438 78.132812 L 97.265625 88.695312 L 80.53125 88.695312 L 80.53125 140.789062 L 83.933594 140.328125 C 116.144531 135.957031 141 108.378906 141 75 C 141 38.585938 111.414062 9 75 9 Z M 75 15 C 108.171875 15 135 41.828125 135 75 C 135 104.1875 114.105469 128.195312 86.53125 133.601562 L 86.53125 94.695312 L 102.410156 94.695312 L 105.894531 72.132812 L 86.53125 72.132812 L 86.53125 66.082031 C 86.53125 62.96875 87.101562 60.179688 88.058594 58.503906 C 89.019531 56.832031 89.945312 56.101562 92.214844 56.101562 L 105.554688 56.101562 L 105.554688 36.027344 L 102.953125 35.675781 C 101.15625 35.433594 97.046875 34.863281 89.636719 34.863281 C 81.527344 34.863281 74.566406 37.074219 69.761719 42.070312 C 64.957031 47.066406 62.582031 54.511719 62.582031 64.117188 L 62.582031 72.140625 L 46.992188 72.140625 L 46.992188 94.699219 L 62.582031 94.699219 L 62.582031 133.410156 C 35.449219 127.664062 15 103.875 15 75 C 15 41.828125 41.828125 15 75 15 Z M 75 15 "/>
</g>
</svg>
